<svg xmlns="http://www.w3.org/2000/svg"  viewBox="0 0 100 100" width="100px" height="100px"><path d="M23.5,93C14.248,93,7,83.556,7,71.5c0-3.584,2.916-6.5,6.5-6.5H19V28c0-9.374,6.729-17,15-17h45.5	C88.481,11,95,20.042,95,32.5c0,3.584-2.916,6.5-6.5,6.5h-8.56l-0.001,37c0.001,4.367-1.452,8.517-4.091,11.683	C73.033,91.062,69.057,93,64.94,93H23.5z" opacity=".35"/><path fill="#f2f2f2" d="M21.5,91C12.248,91,5,81.556,5,69.5c0-3.584,2.916-6.5,6.5-6.5H17V26c0-9.374,6.729-17,15-17h45.5	C86.481,9,93,18.042,93,30.5c0,3.584-2.916,6.5-6.5,6.5h-8.56l-0.001,37c0.001,4.367-1.452,8.517-4.091,11.683	C71.033,89.062,67.057,91,62.94,91H21.5z"/><path fill="#d9eeff" d="M77.44,15.5H32c-4.694,0-8.5,4.701-8.5,10.5v11.5V43v26.5h-13c0,8.008,4.5,15,10,15h41.44	c4.694,0,8.5-4.701,8.5-10.5v-9v-5.5V41v-4.5v-6H85.5C85.5,22.492,82.94,15.5,77.44,15.5z"/><path fill="#40396e" d="M85,30.5H69.94c0-7.207,2.865-13.5,7.56-13.5	S85,23.293,85,30.5z" opacity=".35"/><path fill="#40396e" d="M65.94,81c-4.585,0-8.312-6.005-8.484-13H23v3h31.5	c0.483,6.558,4.075,12,8.44,12c1.715,0,3.306-0.849,4.641-2.266C67.05,80.905,66.502,81,65.94,81z" opacity=".35"/><path fill="#40396e" d="M77.5,14H32c-5.514,0-10,5.383-10,12v42H11.5c-0.829,0-1.5,0.672-1.5,1.5	C10,78.598,15.159,86,21.5,86h41.44c5.514,0,10-5.383,9.999-12l0.001-42H86.5c0.828,0,1.5-0.671,1.5-1.5	C88,20.939,83.584,14,77.5,14z M71.44,29c-0.828,0-1.5,0.671-1.5,1.5V74c0,4.963-3.141,9-7,9H21.5c-4.21,0-7.939-5.453-8.442-12	H23.5c0.829,0,1.5-0.672,1.5-1.5V26c0-4.962,3.14-9,7-9h45.5c3.993,0,7.069,5.062,7.458,12H71.44z"/><path fill="#70bfff" d="M59,32H35c-0.828,0-1.5-0.672-1.5-1.5S34.172,29,35,29h24c0.828,0,1.5,0.672,1.5,1.5S59.828,32,59,32	z"/><path fill="#70bfff" d="M57.5,41H35c-0.828,0-1.5-0.672-1.5-1.5S34.172,38,35,38h22.5c0.828,0,1.5,0.672,1.5,1.5	S58.328,41,57.5,41z"/><path fill="#70bfff" d="M57.5,59H35c-0.828,0-1.5-0.672-1.5-1.5S34.172,56,35,56h22.5c0.828,0,1.5,0.672,1.5,1.5	S58.328,59,57.5,59z"/><path fill="#70bfff" d="M61,50H35c-0.828,0-1.5-0.672-1.5-1.5S34.172,47,35,47h26c0.828,0,1.5,0.672,1.5,1.5S61.828,50,61,50	z"/></svg>